<?xml version="1.0" encoding="utf-8"?>
<!-- Generator: Adobe Illustrator 20.1.0, SVG Export Plug-In . SVG Version: 6.00 Build 0)  -->
<svg version="1.1" id="Lager_1" xmlns="http://www.w3.org/2000/svg" xmlns:xlink="http://www.w3.org/1999/xlink" x="0px" y="0px"
	 viewBox="0 0 1080 1920" style="enable-background:new 0 0 1080 1920;" xml:space="preserve">
<style type="text/css">
	.st0{fill:#FFFFFF;stroke:#000000;stroke-width:9;stroke-miterlimit:10;}
	.st1{fill:none;stroke:#000000;stroke-width:9;stroke-miterlimit:10;}
	.st2{font-family:'MyriadPro-Regular';}
	.st3{font-size:64px;}
</style>
<rect x="-1159" y="1023.7" class="st0" width="424.3" height="260"/>
<text transform="matrix(1 0 0 1 -1133.1865 1203.6666)" class="st2" style="font-size:144px;">Knapp</text>
<text transform="matrix(1 0 0 1 -1038.3334 1793.6666)"><tspan x="0" y="0" class="st2 st3" style="letter-spacing:22;">	</tspan><tspan x="36" y="0" class="st2 st3"> TC</tspan><tspan x="0" y="76.8" class="st2 st3">LOGGA</tspan></text>
<text transform="matrix(1 0 0 1 -1158.9663 356.9998)" class="st2 st3">Utmanande text</text>
<rect x="107.5" y="1040.3" class="st0" width="866.7" height="700"/>
<line class="st1" x1="107.5" y1="1203.7" x2="974.2" y2="1203.7"/>
<line class="st1" x1="105.8" y1="1375.3" x2="972.5" y2="1375.3"/>
<line class="st1" x1="105.8" y1="1577" x2="972.5" y2="1577"/>
<text transform="matrix(1 0 0 1 -1175.0001 -156.3332)" class="st2 st3">Bild som bakgrund</text>
<text transform="matrix(1 0 0 1 61.6659 780.3333)"><tspan x="0" y="0" class="st2 st3">Lorem ipsum dolor sit amet, mel ut</tspan><tspan x="0" y="76.8" class="st2 st3">alia iusto omnes, cu vel verear integre</tspan></text>
</svg>
