<?xml version="1.0" encoding="UTF-8"?>
<svg viewBox="0 0 1052.362179 744.09447" xmlns="http://www.w3.org/2000/svg">
 <path d="m207.56 34.444c-56.394 46.138-101.78 105.28-130.14 174.94l-0.53878 1.321c-77.57 192.4-0.58795 403.11 173.53 515.7h549.3c76.333-49.309 137.94-119.67 173.19-206.26 71.684-176.07 13.644-367.81-130.09-485.69h-635.26z" fill="#aad4e8" stroke="#00add5" stroke-width="12.709"/>
 <path transform="matrix(2.0021 0 0 1.9209 -384.62 -645.16)" d="m330.92 452.68a24.185 23.033 0 1 1 -0.0272 0.0694" fill="#e4f2fa" fill-rule="evenodd" stroke="#6596c5" stroke-width="7.0866"/>
 <g transform="matrix(-.50659 0 0 .48885 591.47 156.19)">
  <path d="m281 299.56c22.855-29.74 53.781-52.725 87.526-69.099 66.592-32.312 145.23-38.995 216.32-18.383s133.96 68.324 172.94 131.25c12.328-15.951 25.399-31.329 39.156-46.066 31.256-33.483 66.063-63.649 103.65-89.829l-64.493 200.39 62.189 175.05c-31.809-11.178-61.121-29.399-85.222-52.976-24.403-23.872-43.431-53.207-55.279-85.222-36.651 54.984-91.01 97.961-152.97 120.94s-131.19 25.837-194.83 8.0469c-48.549-13.571-94.44-39.561-126.68-78.312-18.689-22.462-32.696-49.39-36.853-78.312-5.9636-41.495 9.0047-84.229 34.55-117.47" fill="#f60" stroke="#000" stroke-width="10.63"/>
  <path d="m248.76 414.72c34.581-8.8155 71.371-8.8155 105.95 0 3.9174 0.99865 7.832 2.1177 11.459 3.9035s6.9794 4.2824 9.2708 7.613c2.4382 3.5441 3.5632 7.8905 3.6276 12.192s-0.88689 8.5698-2.3172 12.627c-2.8606 8.1141-7.6082 15.456-10.524 23.551-4.5968 12.762-4.3455 27.206 0.69239 39.801s14.817 23.227 26.947 29.299" fill="none" stroke="#000" stroke-width="10.63"/>
  <path transform="translate(-52.976 23.033)" d="m337.31 282.43c3.1331-6.5491 12.43-9.8626 20.765-7.4009s12.552 9.7664 9.4193 16.315-12.43 9.8626-20.765 7.4009c-8.3162-2.4561-12.537-9.7352-9.4374-16.277" fill-rule="evenodd"/>
  <path transform="translate(-13.82 8.0616)" d="m337.31 282.43c3.1331-6.5491 12.43-9.8626 20.765-7.4009s12.552 9.7664 9.4193 16.315-12.43 9.8626-20.765 7.4009c-8.3162-2.4561-12.537-9.7352-9.4374-16.277" fill-rule="evenodd"/>
 </g>
 <path transform="matrix(1.1132 0 0 1.1605 -93.49 -80.268)" d="m330.92 452.68a24.185 23.033 0 1 1 -0.0272 0.0694" fill="#e4f2fa" fill-rule="evenodd" stroke="#6596c5" stroke-width="7.0866"/>
 <path transform="matrix(1.8172 0 0 1.7282 -93.579 -592.06)" d="m330.92 452.68a24.185 23.033 0 1 1 -0.0272 0.0694" fill="#e4f2fa" fill-rule="evenodd" stroke="#6596c5" stroke-width="7.0866"/>
 <path transform="matrix(1.6398 0 0 1.4323 -55.892 -302.58)" d="m330.92 452.68a24.185 23.033 0 1 1 -0.0272 0.0694" fill="#e4f2fa" fill-rule="evenodd" stroke="#6596c5" stroke-width="7.0866"/>
 <path transform="matrix(.83938 0 0 .81961 259.25 80.636)" d="m330.92 452.68a24.185 23.033 0 1 1 -0.0272 0.0694" fill="#e4f2fa" fill-rule="evenodd" stroke="#6596c5" stroke-width="7.0866"/>
 <path transform="matrix(.60828 0 0 .57869 347.39 302.74)" d="m330.92 452.68a24.185 23.033 0 1 1 -0.0272 0.0694" fill="#e4f2fa" fill-rule="evenodd" stroke="#6596c5" stroke-width="7.0866"/>
 <path transform="matrix(.70072 0 0 .67506 96.073 220.03)" d="m330.92 452.68a24.185 23.033 0 1 1 -0.0272 0.0694" fill="#e4f2fa" fill-rule="evenodd" stroke="#6596c5" stroke-width="7.0866"/>
 <path transform="matrix(2.2794 0 0 2.21 -63.407 -821.79)" d="m330.92 452.68a24.185 23.033 0 1 1 -0.0272 0.0694" fill="#e4f2fa" fill-rule="evenodd" stroke="#6596c5" stroke-width="7.0866"/>
 <path transform="matrix(1.5861 0 0 1.4872 226.72 -385.34)" d="m330.92 452.68a24.185 23.033 0 1 1 -0.0272 0.0694" fill="#e4f2fa" fill-rule="evenodd" stroke="#6596c5" stroke-width="7.0866"/>
 <path transform="matrix(.65095 0 0 .6786 531.64 274.57)" d="m330.92 452.68a24.185 23.033 0 1 1 -0.0272 0.0694" fill="#e4f2fa" fill-rule="evenodd" stroke="#6596c5" stroke-width="7.0866"/>
 <path transform="matrix(.46963 0 0 .43415 182.92 387.22)" d="m330.92 452.68a24.185 23.033 0 1 1 -0.0272 0.0694" fill="#e4f2fa" fill-rule="evenodd" stroke="#6596c5" stroke-width="7.0866"/>
 <path transform="matrix(1.5861 0 0 1.4872 188.14 -364.91)" d="m330.92 452.68a24.185 23.033 0 1 1 -0.0272 0.0694" fill="#e4f2fa" fill-rule="evenodd" opacity=".75" stroke="#6596c5" stroke-width="7.0866"/>
 <g transform="matrix(.37462 0 0 .3484 497.77 309.02)">
  <path d="m281 299.56c22.855-29.74 53.781-52.725 87.526-69.099 66.592-32.312 145.23-38.995 216.32-18.383s133.96 68.324 172.94 131.25c12.328-15.951 25.399-31.329 39.156-46.066 31.256-33.483 66.063-63.649 103.65-89.829l-64.493 200.39 62.189 175.05c-31.809-11.178-61.121-29.399-85.222-52.976-24.403-23.872-43.431-53.207-55.279-85.222-36.651 54.984-91.01 97.961-152.97 120.94s-131.19 25.837-194.83 8.0469c-48.549-13.571-94.44-39.561-126.68-78.312-18.689-22.462-32.696-49.39-36.853-78.312-5.9636-41.495 9.0047-84.229 34.55-117.47" fill="#f60" stroke="#000" stroke-width="10.63"/>
  <path d="m248.76 414.72c34.581-8.8155 71.371-8.8155 105.95 0 3.9174 0.99865 7.832 2.1177 11.459 3.9035s6.9794 4.2824 9.2708 7.613c2.4382 3.5441 3.5632 7.8905 3.6276 12.192s-0.88689 8.5698-2.3172 12.627c-2.8606 8.1141-7.6082 15.456-10.524 23.551-4.5968 12.762-4.3455 27.206 0.69239 39.801s14.817 23.227 26.947 29.299" fill="none" stroke="#000" stroke-width="10.63"/>
  <path transform="translate(-52.976 23.033)" d="m337.31 282.43c3.1331-6.5491 12.43-9.8626 20.765-7.4009s12.552 9.7664 9.4193 16.315-12.43 9.8626-20.765 7.4009c-8.3162-2.4561-12.537-9.7352-9.4374-16.277" fill-rule="evenodd"/>
  <path transform="translate(-13.82 8.0616)" d="m337.31 282.43c3.1331-6.5491 12.43-9.8626 20.765-7.4009s12.552 9.7664 9.4193 16.315-12.43 9.8626-20.765 7.4009c-8.3162-2.4561-12.537-9.7352-9.4374-16.277" fill-rule="evenodd"/>
 </g>
 <path transform="matrix(1.8708 0 0 1.6732 92.634 -294.8)" d="m330.92 452.68a24.185 23.033 0 1 1 -0.0272 0.0694" fill="#e4f2fa" fill-rule="evenodd" opacity=".5929" stroke="#6596c5" stroke-width="7.0866"/>
 <path d="m213.12 35.932c-31.801 26.058-60.046 56.34-83.6 90.37h790.93c-23.022-33.24-50.994-63.73-83.423-90.37h-623.91z" fill="#eff6f7"/>
</svg>
