<?xml version="1.0" encoding="utf-8"?>
<!-- Generator: Adobe Illustrator 20.1.0, SVG Export Plug-In . SVG Version: 6.00 Build 0)  -->
<svg version="1.1" id="Lager_1" xmlns="http://www.w3.org/2000/svg" xmlns:xlink="http://www.w3.org/1999/xlink" x="0px" y="0px"
	 viewBox="0 0 303.3 158" style="enable-background:new 0 0 303.3 158;" xml:space="preserve">
<style type="text/css">
	.st0{fill:#FFFFFF;stroke:#000000;stroke-miterlimit:10;}
	.st1{fill:#FFFFFF;stroke:#000000;stroke-linejoin:round;stroke-miterlimit:10;}
	.st2{fill:none;stroke:#000000;stroke-linecap:square;stroke-linejoin:round;stroke-miterlimit:10;}
	.st3{fill:#295690;stroke:#000000;stroke-linejoin:round;stroke-miterlimit:10;}
	.st4{fill:#D29206;stroke:#000000;stroke-linecap:square;stroke-linejoin:round;stroke-miterlimit:10;}
	.st5{fill:#D29206;stroke:#000000;stroke-linejoin:round;stroke-miterlimit:10;}
	.st6{fill:#295690;stroke:#000000;stroke-linecap:square;stroke-linejoin:round;stroke-miterlimit:10;}
	.st7{fill:#D29206;stroke:#000000;stroke-linecap:round;stroke-linejoin:round;stroke-miterlimit:10;}
	.st8{fill:#FFFFFF;stroke:#000000;stroke-linecap:square;stroke-linejoin:round;stroke-miterlimit:10;}
	.st9{fill:none;stroke:#000000;stroke-linecap:round;stroke-linejoin:round;stroke-miterlimit:10;}
	.st10{fill:none;stroke:#000000;stroke-linejoin:round;stroke-miterlimit:10;}
	.st11{font-family:'MyriadPro-Regular';}
	.st12{font-size:12px;}
	.st13{font-size:34px;}
</style>
<rect x="198.5" y="18.7" class="st0" width="45.3" height="45.3"/>
<g>
	<rect x="30.5" y="18.7" class="st1" width="45.3" height="45.3"/>
	<g>
		<polygon class="st2" points="66.3,54.5 53.2,54.5 53.2,41.4 		"/>
		<polygon class="st2" points="53.2,41.4 66.3,41.4 66.3,54.5 		"/>
	</g>
	<polygon class="st3" points="53.2,41.4 53.2,54.5 40,54.5 	"/>
	<polygon class="st4" points="40,54.5 40,41.4 53.2,41.4 	"/>
	<g>
		<g>
			<polygon class="st2" points="40,28.2 53.2,28.2 53.2,41.4 			"/>
			<polygon class="st2" points="53.2,41.4 40,41.4 40,28.2 			"/>
		</g>
		<polygon class="st2" points="53.2,41.4 53.2,28.2 66.3,28.2 		"/>
		<polygon class="st2" points="66.3,28.2 66.3,41.4 53.2,41.4 		"/>
	</g>
</g>
<rect x="86.5" y="18.7" class="st0" width="45.3" height="45.3"/>
<g>
	<polygon class="st2" points="122.3,54.5 109.2,54.5 109.2,41.4 	"/>
	<polygon class="st2" points="109.2,41.4 122.3,41.4 122.3,54.5 	"/>
</g>
<polygon class="st5" points="109.2,41.4 109.2,54.5 96,54.5 "/>
<polygon class="st6" points="96,54.5 96,41.4 109.2,41.4 "/>
<g>
	<g>
		<polygon class="st2" points="96,28.2 109.2,28.2 109.2,41.4 		"/>
		<polygon class="st2" points="109.2,41.4 96,41.4 96,28.2 		"/>
	</g>
	<polygon class="st2" points="109.2,41.4 109.2,28.2 122.3,28.2 	"/>
	<polygon class="st2" points="122.3,28.2 122.3,41.4 109.2,41.4 	"/>
</g>
<rect x="142.5" y="18.7" class="st0" width="45.3" height="45.3"/>
<polygon class="st7" points="178.3,54.5 165.2,54.5 165.2,41.4 "/>
<polygon class="st8" points="165.2,41.4 178.3,41.4 178.3,54.5 "/>
<polygon class="st9" points="165.2,41.4 165.2,54.5 152,54.5 "/>
<polygon class="st2" points="152,54.5 152,41.4 165.2,41.4 "/>
<polygon class="st8" points="152,28.2 165.2,28.2 165.2,41.4 "/>
<polygon class="st6" points="165.2,41.4 152,41.4 152,28.2 "/>
<polygon class="st2" points="165.2,41.4 165.2,28.2 178.3,28.2 "/>
<polygon class="st2" points="178.3,28.2 178.3,41.4 165.2,41.4 "/>
<polygon class="st10" points="234.3,54.5 221.2,54.5 221.2,41.4 "/>
<polygon class="st5" points="221.2,41.4 234.3,41.4 234.3,54.5 "/>
<polygon class="st10" points="221.2,41.4 221.2,54.5 208,54.5 "/>
<polygon class="st2" points="208,54.5 208,41.4 221.2,41.4 "/>
<polygon class="st6" points="208,28.2 221.2,28.2 221.2,41.4 "/>
<polygon class="st2" points="221.2,41.4 208,41.4 208,28.2 "/>
<polygon class="st2" points="221.2,41.4 221.2,28.2 234.3,28.2 "/>
<polygon class="st2" points="234.3,28.2 234.3,41.4 221.2,41.4 "/>
<rect x="29.7" y="94.7" class="st0" width="45.3" height="45.3"/>
<polygon class="st10" points="65.5,130.5 52.3,130.5 52.3,117.4 "/>
<polygon class="st10" points="52.3,117.4 65.5,117.4 65.5,130.5 "/>
<polygon class="st10" points="52.3,117.4 52.3,130.5 39.2,130.5 "/>
<polygon class="st2" points="39.2,130.5 39.2,117.4 52.3,117.4 "/>
<polygon class="st8" points="39.2,104.2 52.3,104.2 52.3,117.4 "/>
<polygon class="st2" points="52.3,117.4 39.2,117.4 39.2,104.2 "/>
<polygon class="st4" points="52.3,117.4 52.3,104.2 65.5,104.2 "/>
<polygon class="st3" points="65.5,104.2 65.5,117.4 52.3,117.4 "/>
<rect x="85.7" y="94.7" class="st0" width="45.3" height="45.3"/>
<polygon class="st4" points="121.5,130.5 108.3,130.5 108.3,117.4 "/>
<polygon class="st10" points="108.3,117.4 121.5,117.4 121.5,130.5 "/>
<polygon class="st10" points="108.3,117.4 108.3,130.5 95.2,130.5 "/>
<polygon class="st2" points="95.2,130.5 95.2,117.4 108.3,117.4 "/>
<polygon class="st8" points="95.2,104.2 108.3,104.2 108.3,117.4 "/>
<polygon class="st2" points="108.3,117.4 95.2,117.4 95.2,104.2 "/>
<polygon class="st3" points="108.3,117.4 108.3,104.2 121.5,104.2 "/>
<polygon class="st10" points="121.5,104.2 121.5,117.4 108.3,117.4 "/>
<rect x="141.7" y="94.7" class="st0" width="45.3" height="45.3"/>
<polygon class="st4" points="177.5,130.5 164.3,130.5 164.3,117.4 "/>
<polygon class="st10" points="164.3,117.4 177.5,117.4 177.5,130.5 "/>
<polygon class="st10" points="164.3,117.4 164.3,130.5 151.2,130.5 "/>
<polygon class="st2" points="151.2,130.5 151.2,117.4 164.3,117.4 "/>
<polygon class="st8" points="151.2,104.2 164.3,104.2 164.3,117.4 "/>
<polygon class="st3" points="164.3,117.4 151.2,117.4 151.2,104.2 "/>
<polygon class="st10" points="164.3,117.4 164.3,104.2 177.5,104.2 "/>
<polygon class="st10" points="177.5,104.2 177.5,117.4 164.3,117.4 "/>
<rect x="197.7" y="94.5" class="st0" width="45.3" height="45.3"/>
<polygon class="st2" points="233.5,130.3 220.3,130.3 220.3,117.1 "/>
<polygon class="st10" points="220.3,117.1 233.5,117.1 233.5,130.3 "/>
<polygon class="st10" points="220.3,117.1 220.3,130.3 207.2,130.3 "/>
<polygon class="st2" points="207.2,130.3 207.2,117.1 220.3,117.1 "/>
<polygon class="st8" points="207.2,104 220.3,104 220.3,117.1 "/>
<polygon class="st10" points="220.3,117.1 207.2,117.1 207.2,104 "/>
<polygon class="st3" points="220.3,117.1 220.3,104 233.5,104 "/>
<polygon class="st4" points="233.5,104 233.5,117.1 220.3,117.1 "/>
<text transform="matrix(1 0 0 1 49.0002 91.3957)" class="st11 st12">A</text>
<text transform="matrix(1 0 0 1 49.0002 91.3957)" class="st11 st12">A</text>
<text transform="matrix(1 0 0 1 104.6665 91.3958)" class="st11 st12">B</text>
<text transform="matrix(1 0 0 1 161.1668 91.3957)" class="st11 st12">C</text>
<text transform="matrix(1 0 0 1 216.8332 91.3958)" class="st11 st12">D</text>
<text transform="matrix(1 0 0 1 264.0417 50.6667)" class="st11 st13">?</text>
</svg>
